<svg xmlns="http://www.w3.org/2000/svg" xmlns:xlink="http://www.w3.org/1999/xlink" version="1.1" width="1000" height="1000" viewBox="0 0 1000 1000" xml:space="preserve">
<desc>Created with Fabric.js 3.5.0</desc>
<defs>
</defs>
<rect x="0" y="0" width="100%" height="100%" fill="#ffffff"/>
<g transform="matrix(28.4091 0 0 28.4091 500.0001 500.0001)" id="221590">
<g style="" vector-effect="non-scaling-stroke">
		<g transform="matrix(1 0 0 1 0 0)">
<rect style="stroke: rgb(119,119,119); stroke-width: 1; stroke-dasharray: none; stroke-linecap: butt; stroke-dashoffset: 0; stroke-linejoin: miter; stroke-miterlimit: 4; is-custom-font: none; font-file-url: none; fill: rgb(255,255,255); fill-rule: nonzero; opacity: 1;" x="-15.5" y="-15.5" rx="7.5" ry="7.5" width="31" height="31"/>
</g>
		<g transform="matrix(1 0 0 1 0.1667 0.1667)">
<path style="stroke: rgb(119,119,119); stroke-width: 1; stroke-dasharray: none; stroke-linecap: butt; stroke-dashoffset: 0; stroke-linejoin: miter; stroke-miterlimit: 4; is-custom-font: none; font-file-url: none; fill: rgb(181,181,181); fill-rule: nonzero; opacity: 1;" transform=" translate(-16.1667, -16.1667)" d="M 20.0799 18.6155 L 17.6311 16.1667 L 20.0798 13.718 C 21.0241 12.7738 19.5596 11.3093 18.6154 12.2536 L 16.1667 14.7023 L 13.7179 12.2535 C 12.7738 11.3095 11.3095 12.7738 12.2535 13.7179 L 14.7023 16.1667 L 12.2536 18.6154 C 11.3093 19.5596 12.7738 21.0241 13.718 20.0798 L 16.1667 17.6311 L 18.6155 20.0799 C 19.5597 21.0241 21.0241 19.5597 20.0799 18.6155 Z" stroke-linecap="round"/>
</g>
</g>
</g>
</svg>